<svg xmlns="http://www.w3.org/2000/svg" viewBox="0 0 800 800" width="400" height="400">
  <g color="#a48a7b">
    <!-- contorno foglia -->
    <g transform="translate(0,800) scale(0.1,-0.1)" fill="none" stroke="currentColor" stroke-width="28" stroke-linejoin="round" stroke-linecap="round">
      <path d="M6065 7300 c-27 -4 -93 -19 -145 -33 -168 -46 -216 -50 -590 -52
-407 -2 -448 -8 -643 -99 -174 -81 -384 -245 -475 -371 -20 -27 -55 -72 -77
-100 -128 -159 -143 -312 -62 -615 25 -97 53 -222 61 -278 8 -57 22 -114 31
-129 27 -41 23 -116 -9 -158 -14 -19 -29 -49 -33 -67 -24 -126 -204 -185 -303
-101 -71 61 -137 51 -179 -27 -77 -145 -264 -113 -264 46 0 83 30 115 138 146
66 18 80 45 57 102 -36 87 -24 207 41 409 60 187 64 217 47 342 -19 133 -130
288 -259 362 -105 61 -171 112 -262 202 -327 328 -504 398 -759 300 -134 -51
-202 -101 -254 -188 -35 -57 -99 -109 -241 -193 -81 -48 -194 -67 -450 -74
-357 -9 -385 -50 -184 -272 84 -92 87 -192 9 -354 -31 -65 -42 -75 -254 -252
-376 -313 -471 -453 -483 -711 -9 -197 5 -210 257 -218 286 -10 436 -70 528
-215 73 -113 65 -193 -43 -412 -107 -216 -130 -315 -106 -470 22 -141 122
-384 214 -513 24 -34 58 -89 77 -122 18 -33 59 -95 91 -138 33 -44 59 -83 59
-88 0 -6 32 -68 71 -140 96 -175 116 -182 204 -66 28 36 69 79 91 95 23 17 68
63 102 104 177 218 411 256 437 71 11 -86 -69 -295 -150 -393 -101 -121 -89
-272 25 -305 14 -4 45 -20 70 -35 25 -16 57 -31 71 -35 14 -3 66 -39 116 -80
100 -82 111 -101 193 -310 119 -305 187 -434 272 -517 21 -21 38 -44 38 -52 0
-8 18 -36 40 -61 22 -26 47 -61 54 -79 17 -40 395 -422 431 -436 53 -20 104
21 160 129 19 38 441 461 500 501 23 16 73 59 111 97 38 37 87 81 109 98 22
16 65 54 95 85 31 30 101 96 157 147 55 51 118 118 139 150 21 32 54 77 73 99
173 199 207 409 113 689 -49 146 -32 270 43 319 150 98 609 21 855 -143 30
-21 75 -49 100 -63 25 -14 60 -44 78 -67 182 -227 288 -30 382 708 10 75 49
178 153 402 103 221 104 321 6 517 -42 84 -60 108 -95 133 -24 16 -48 38 -54
49 -6 10 -48 62 -94 114 -168 192 -121 272 245 412 52 19 148 46 213 60 134
27 143 32 152 81 21 110 155 143 238 58 117 -120 180 20 75 166 -11 15 -26 45
-33 66 -19 55 -69 148 -113 214 -21 31 -60 89 -87 129 -62 91 -262 300 -337
350 -31 21 -63 50 -73 64 -9 14 -36 38 -59 53 -147 92 -218 214 -267 461 -67
329 -192 527 -325 511 -5 -1 -32 -5 -60 -9z" />
    </g>
  </g>
</svg>
