<?xml version="1.0" standalone="no"?>
<!DOCTYPE svg PUBLIC "-//W3C//DTD SVG 20010904//EN"
 "http://www.w3.org/TR/2001/REC-SVG-20010904/DTD/svg10.dtd">
<svg version="1.0" xmlns="http://www.w3.org/2000/svg"
 width="813.000000pt" height="431.000000pt" viewBox="0 0 813.000000 431.000000"
 preserveAspectRatio="xMidYMid meet">
<metadata>
Created by potrace 1.16, written by Peter Selinger 2001-2019
</metadata>
<g transform="translate(0.000000,431.000000) scale(0.100000,-0.100000)"
fill="#000000" stroke="none">
<path d="M4038 4303 c18 -2 45 -2 60 0 15 2 0 4 -33 4 -33 0 -45 -2 -27 -4z
M2042 3164 c-67 -18 -84 -27 -134 -72 -54 -49 -80 -104 -86 -182 -9 -135 56
-215 287 -355 160 -96 232 -161 250 -225 24 -88 -21 -190 -104 -230 -38 -18
-58 -21 -123 -18 -92 4 -163 34 -234 97 l-46 41 -35 -42 c-19 -23 -33 -48 -30
-55 10 -25 138 -112 198 -135 48 -18 80 -23 160 -23 93 0 105 2 167 33 142 70
215 221 179 369 -27 110 -107 187 -340 326 -142 85 -179 118 -191 173 -27 116
74 207 211 191 52 -6 151 -46 181 -73 15 -15 19 -12 47 33 l30 48 -22 18 c-40
32 -131 74 -185 86 -68 14 -114 13 -180 -5z M2830 2570 l0 -580 325 0 325 0 0
55 0 55 -255 0 -255 0 0 245 0 245 205 0 205 0 0 60 0 60 -205 0 -205 0 0 160
0 160 223 2 222 3 3 58 3 57 -296 0 -295 0 0 -580z M3592 3093 l3 -58 198 -3
197 -2 0 -520 0 -520 65 0 65 0 0 520 0 520 198 2 197 3 3 58 3 57 -466 0
-466 0 3 -57z M4550 3090 l0 -60 195 0 195 0 0 -520 0 -520 70 0 70 0 0 520 0
520 195 0 195 0 0 60 0 60 -460 0 -460 0 0 -60z M5710 2570 l0 -580 325 0 325
0 0 55 0 55 -260 0 -260 0 0 245 0 245 210 0 211 0 -3 58 -3 57 -207 3 -208 2
0 160 0 160 225 0 225 0 0 60 0 60 -290 0 -290 0 0 -580z M5175 1207 c-83 -44
-209 -173 -262 -267 -95 -170 -123 -312 -130 -657 l-6 -253 112 0 111 0 0 100
0 100 250 0 250 0 0 -100 0 -100 105 0 105 0 0 229 c0 333 -22 459 -111 641
-45 90 -64 117 -138 191 -80 79 -180 149 -212 149 -8 0 -41 -15 -74 -33z m157
-275 c96 -90 144 -216 163 -429 l7 -73 -251 0 -251 0 0 54 c0 72 25 213 51
280 28 76 76 143 138 194 60 49 64 48 143 -26z M1373 1200 c-121 -32 -199 -76
-289 -165 -125 -123 -178 -252 -177 -430 0 -150 51 -289 143 -397 58 -67 176
-142 273 -174 73 -24 98 -27 217 -28 122 0 143 3 215 28 210 73 359 229 410
431 45 178 -4 398 -122 542 -141 172 -431 256 -670 193z m269 -201 c262 -55
392 -324 273 -565 -41 -85 -93 -135 -180 -176 -216 -101 -474 -21 -571 178
-27 54 -29 68 -29 169 0 100 3 116 29 172 78 170 280 263 478 222z M2612 1189
c-50 -5 -109 -13 -130 -17 l-37 -8 -3 -567 -2 -567 110 0 110 0 0 474 0 473
83 6 c105 9 239 9 345 0 l82 -6 0 -473 0 -474 105 0 105 0 0 569 0 568 -87 13
c-112 15 -559 21 -681 9z M6249 1190 c-42 -4 -102 -11 -133 -14 l-56 -7 0
-570 0 -569 105 0 105 0 0 474 0 473 83 6 c45 4 123 7 172 7 50 0 127 -3 173
-7 l82 -6 0 -473 0 -474 105 0 105 0 0 569 0 569 -47 6 c-191 25 -518 33 -694
16z M10 610 l0 -580 105 0 105 0 0 265 0 265 198 2 197 3 3 103 3 102 -201 0
-200 0 0 110 0 110 225 0 225 0 0 100 0 100 -330 0 -330 0 0 -580z M3660 1090
l0 -100 175 0 175 0 0 -480 0 -480 105 0 105 0 0 480 0 480 175 0 175 0 0 100
0 100 -455 0 -455 0 0 -100z M7440 610 l0 -580 345 0 345 0 0 100 0 100 -240
0 -240 0 0 165 0 165 198 2 197 3 3 103 3 102 -201 0 -200 0 0 110 0 110 225
0 225 0 0 100 0 100 -330 0 -330 0 0 -580z"/>
</g>
</svg>
