<svg xmlns="http://www.w3.org/2000/svg" viewBox="0 0 100 100">
  <!-- Le sette gocce del logo Sette Fontane: stessa geometria (DROP_PATH,
       POSITIONS) di src/components/DropsLogo.jsx, centrata in un riquadro
       quadrato per la favicon. Colore tortora, lo stesso ovunque nel sito. -->
  <g fill="#A48A7B" transform="translate(50 4.9) scale(0.899)">
    <path d="M0 0 C 0 0, -8.418 8.756, -8.418 14.801 C -8.418 19.451, -4.649 23.22, 0 23.22 C 4.649 23.22, 8.419 19.451, 8.419 14.801 C 8.419 8.756, 0 0, 0 0 Z" transform="translate(0 0)" />
    <path d="M0 0 C 0 0, -8.418 8.756, -8.418 14.801 C -8.418 19.451, -4.649 23.22, 0 23.22 C 4.649 23.22, 8.419 19.451, 8.419 14.801 C 8.419 8.756, 0 0, 0 0 Z" transform="translate(-25.364 26.378)" />
    <path d="M0 0 C 0 0, -8.418 8.756, -8.418 14.801 C -8.418 19.451, -4.649 23.22, 0 23.22 C 4.649 23.22, 8.419 19.451, 8.419 14.801 C 8.419 8.756, 0 0, 0 0 Z" transform="translate(0 26.378)" />
    <path d="M0 0 C 0 0, -8.418 8.756, -8.418 14.801 C -8.418 19.451, -4.649 23.22, 0 23.22 C 4.649 23.22, 8.419 19.451, 8.419 14.801 C 8.419 8.756, 0 0, 0 0 Z" transform="translate(25.364 26.378)" />
    <path d="M0 0 C 0 0, -8.418 8.756, -8.418 14.801 C -8.418 19.451, -4.649 23.22, 0 23.22 C 4.649 23.22, 8.419 19.451, 8.419 14.801 C 8.419 8.756, 0 0, 0 0 Z" transform="translate(-11.304 51.741)" />
    <path d="M0 0 C 0 0, -8.418 8.756, -8.418 14.801 C -8.418 19.451, -4.649 23.22, 0 23.22 C 4.649 23.22, 8.419 19.451, 8.419 14.801 C 8.419 8.756, 0 0, 0 0 Z" transform="translate(11.305 51.741)" />
    <path d="M0 0 C 0 0, -8.418 8.756, -8.418 14.801 C -8.418 19.451, -4.649 23.22, 0 23.22 C 4.649 23.22, 8.419 19.451, 8.419 14.801 C 8.419 8.756, 0 0, 0 0 Z" transform="translate(0 77.105)" />
  </g>
</svg>
